<svg width="38" height="38" viewBox="0 0 38 38" fill="none" xmlns="http://www.w3.org/2000/svg">
<path d="M38.0005 19.0003C38.0005 29.4762 29.4762 38.0005 19.0002 38.0005C8.52435 38.0005 0 29.4761 0 19.0003C3.95289e-06 8.52443 8.52435 0 19.0002 0C29.4762 1.97643e-06 38.0005 8.52443 38.0005 19.0003ZM35.076 19.0003C35.076 10.1395 27.861 2.92447 19.0002 2.92447C10.1395 2.92447 2.92457 10.1395 2.92439 19.0003C2.92439 27.861 10.1395 35.076 19.0002 35.076C27.861 35.076 35.076 27.861 35.076 19.0003Z" fill="#F0F4FF"/>
<path fill-rule="evenodd" clip-rule="evenodd" d="M27.292 11.0082C26.9081 11.0082 26.5969 11.3194 26.5969 11.7033V13.5305C26.5969 14.3751 25.9056 15.0651 25.0579 15.0651C24.2102 15.0651 23.5189 14.3751 23.5189 13.5305V11.7033C23.5189 11.3194 23.2078 11.0082 22.8239 11.0082H21.7965C21.4125 11.0082 21.1014 11.3194 21.1014 11.7033V13.5305C21.1014 15.7185 22.8736 17.5019 25.0579 17.5019C27.2417 17.5019 29.0193 15.719 29.0193 13.5305V11.7033C29.0193 11.3194 28.7082 11.0082 28.3242 11.0082H27.292Z" fill="#F0F4FF"/>
<path d="M15.3982 12.8184C15.3982 13.2023 15.0868 13.5135 14.7031 13.5135H13.8808V16.8538C13.8806 17.2375 13.5696 17.5488 13.1858 17.5488H12.0947C11.712 17.5487 11.399 17.2385 11.399 16.8537V13.5135H10.548C10.164 13.5135 9.8529 13.2022 9.85289 12.8184V11.7252C9.85289 11.3416 10.1636 11.0305 10.5473 11.03L14.7022 11.0257L14.7381 11.0265C15.1057 11.0448 15.3979 11.3487 15.3982 11.7206V12.8184Z" fill="#F0F4FF"/>
<path fill-rule="evenodd" clip-rule="evenodd" d="M10.4061 20.6867C10.1636 20.6867 9.94506 20.8127 9.82239 21.0071C9.7516 21.1191 9.71308 21.2534 9.7199 21.3978C9.94752 26.2099 14.476 30.0793 19.1442 30.0793C23.8154 30.0793 28.3412 26.2116 28.5685 21.3977L28.5693 21.3616C28.5678 20.9915 28.2704 20.7056 27.9179 20.6876L27.916 20.6875H27.914L27.8863 20.6868L27.8844 20.6867H26.459C26.0898 20.6867 25.8 20.971 25.7592 21.3172C25.3684 24.6505 22.5464 27.2473 19.1442 27.2473C15.7439 27.2473 12.923 24.6533 12.5298 21.3168C12.489 20.9706 12.1992 20.6867 11.83 20.6867H10.4061Z" fill="#F0F4FF"/>
</svg>
