<svg width="17" height="17" viewBox="0 0 17 17" fill="none" xmlns="http://www.w3.org/2000/svg">
  <path d="M1.417 3.542H9.917V11.333H1.417V3.542Z" stroke="#2B5EED" stroke-width="1.5" stroke-linecap="round" stroke-linejoin="round"/>
  <path d="M9.917 6.375H12.396L15.583 8.854V11.333H9.917V6.375Z" stroke="#2B5EED" stroke-width="1.5" stroke-linecap="round" stroke-linejoin="round"/>
  <path d="M4.25 14.167C5.1795 14.167 5.9375 13.409 5.9375 12.4795C5.9375 11.55 5.1795 10.792 4.25 10.792C3.3205 10.792 2.5625 11.55 2.5625 12.4795C2.5625 13.409 3.3205 14.167 4.25 14.167Z" stroke="#2B5EED" stroke-width="1.5" stroke-linecap="round" stroke-linejoin="round"/>
  <path d="M12.75 14.167C13.6795 14.167 14.4375 13.409 14.4375 12.4795C14.4375 11.55 13.6795 10.792 12.75 10.792C11.8205 10.792 11.0625 11.55 11.0625 12.4795C11.0625 13.409 11.8205 14.167 12.75 14.167Z" stroke="#2B5EED" stroke-width="1.5" stroke-linecap="round" stroke-linejoin="round"/>
</svg>
